<?xml version="1.0" encoding="utf-8" standalone="no"?>
<!DOCTYPE svg PUBLIC "-//W3C//DTD SVG 1.1//EN"
  "http://www.w3.org/Graphics/SVG/1.1/DTD/svg11.dtd">
<!-- Created with matplotlib (https://matplotlib.org/) -->
<svg height="601.976562pt" version="1.1" viewBox="0 0 494.823437 601.976562" width="494.823437pt" xmlns="http://www.w3.org/2000/svg" xmlns:xlink="http://www.w3.org/1999/xlink">
 <metadata>
  <rdf:RDF xmlns:cc="http://creativecommons.org/ns#" xmlns:dc="http://purl.org/dc/elements/1.1/" xmlns:rdf="http://www.w3.org/1999/02/22-rdf-syntax-ns#">
   <cc:Work>
    <dc:type rdf:resource="http://purl.org/dc/dcmitype/StillImage"/>
    <dc:date>2023-03-22T16:07:00.031005</dc:date>
    <dc:format>image/svg+xml</dc:format>
    <dc:creator>
     <cc:Agent>
      <dc:title>Matplotlib v3.3.4, https://matplotlib.org/</dc:title>
     </cc:Agent>
    </dc:creator>
   </cc:Work>
  </rdf:RDF>
 </metadata>
 <defs>
  <style type="text/css">*{stroke-linecap:butt;stroke-linejoin:round;}</style>
 </defs>
 <g id="figure_1">
  <g id="patch_1">
   <path d="M 0 601.976562 
L 494.823437 601.976562 
L 494.823437 0 
L 0 0 
z
" style="fill:#ffffff;"/>
  </g>
  <g id="axes_1">
   <g id="patch_2">
    <path d="M 36.223438 561.6 
L 482.623437 561.6 
L 482.623437 7.2 
L 36.223438 7.2 
z
" style="fill:#ffffff;"/>
   </g>
   <g id="matplotlib.axis_1">
    <g id="xtick_1">
     <g id="line2d_1">
      <defs>
       <path d="M 0 0 
L 0 -3.5 
" id="m915c9c643c" style="stroke:#000000;stroke-width:0.8;"/>
      </defs>
      <g>
       <use style="stroke:#000000;stroke-width:0.8;" x="57.48058" xlink:href="#m915c9c643c" y="561.6"/>
      </g>
     </g>
     <g id="text_1">
      <!-- 1 -->
      <g transform="translate(54.98058 572.04375)scale(0.1 -0.1)">
       <defs>
        <path d="M 11.71875 59.71875 
L 27.828125 67.578125 
L 29.4375 67.578125 
L 29.4375 11.671875 
Q 29.4375 6.109375 29.90625 4.734375 
Q 30.375 3.375 31.828125 2.640625 
Q 33.296875 1.90625 37.796875 1.8125 
L 37.796875 0 
L 12.890625 0 
L 12.890625 1.8125 
Q 17.578125 1.90625 18.9375 2.609375 
Q 20.3125 3.328125 20.84375 4.515625 
Q 21.390625 5.71875 21.390625 11.671875 
L 21.390625 47.40625 
Q 21.390625 54.640625 20.90625 56.6875 
Q 20.5625 58.25 19.65625 58.984375 
Q 18.75 59.71875 17.484375 59.71875 
Q 15.671875 59.71875 12.453125 58.203125 
z
" id="TimesNewRomanPSMT-49"/>
       </defs>
       <use xlink:href="#TimesNewRomanPSMT-49"/>
      </g>
     </g>
    </g>
    <g id="xtick_2">
     <g id="line2d_2">
      <g>
       <use style="stroke:#000000;stroke-width:0.8;" x="78.737723" xlink:href="#m915c9c643c" y="561.6"/>
      </g>
     </g>
     <g id="text_2">
      <!-- 2 -->
      <g transform="translate(76.237723 572.04375)scale(0.1 -0.1)">
       <defs>
        <path d="M 45.84375 12.75 
L 41.21875 0 
L 2.15625 0 
L 2.15625 1.8125 
Q 19.390625 17.53125 26.421875 27.484375 
Q 33.453125 37.453125 33.453125 45.703125 
Q 33.453125 52 29.59375 56.046875 
Q 25.734375 60.109375 20.359375 60.109375 
Q 15.484375 60.109375 11.59375 57.25 
Q 7.71875 54.390625 5.859375 48.875 
L 4.046875 48.875 
Q 5.28125 57.90625 10.328125 62.734375 
Q 15.375 67.578125 22.953125 67.578125 
Q 31 67.578125 36.390625 62.40625 
Q 41.796875 57.234375 41.796875 50.203125 
Q 41.796875 45.171875 39.453125 40.140625 
Q 35.84375 32.234375 27.734375 23.390625 
Q 15.578125 10.109375 12.546875 7.375 
L 29.828125 7.375 
Q 35.109375 7.375 37.234375 7.765625 
Q 39.359375 8.15625 41.0625 9.34375 
Q 42.78125 10.546875 44.046875 12.75 
z
" id="TimesNewRomanPSMT-50"/>
       </defs>
       <use xlink:href="#TimesNewRomanPSMT-50"/>
      </g>
     </g>
    </g>
    <g id="xtick_3">
     <g id="line2d_3">
      <g>
       <use style="stroke:#000000;stroke-width:0.8;" x="99.994866" xlink:href="#m915c9c643c" y="561.6"/>
      </g>
     </g>
     <g id="text_3">
      <!-- 3 -->
      <g transform="translate(97.494866 572.04375)scale(0.1 -0.1)">
       <defs>
        <path d="M 5.078125 53.609375 
Q 7.90625 60.296875 12.21875 63.9375 
Q 16.546875 67.578125 23 67.578125 
Q 30.953125 67.578125 35.203125 62.40625 
Q 38.421875 58.546875 38.421875 54.15625 
Q 38.421875 46.921875 29.34375 39.203125 
Q 35.453125 36.8125 38.578125 32.375 
Q 41.703125 27.9375 41.703125 21.921875 
Q 41.703125 13.328125 36.234375 7.03125 
Q 29.109375 -1.171875 15.578125 -1.171875 
Q 8.890625 -1.171875 6.46875 0.484375 
Q 4.046875 2.15625 4.046875 4.046875 
Q 4.046875 5.46875 5.1875 6.546875 
Q 6.34375 7.625 7.953125 7.625 
Q 9.1875 7.625 10.453125 7.234375 
Q 11.28125 6.984375 14.203125 5.4375 
Q 17.140625 3.90625 18.265625 3.609375 
Q 20.0625 3.078125 22.125 3.078125 
Q 27.09375 3.078125 30.78125 6.9375 
Q 34.46875 10.796875 34.46875 16.0625 
Q 34.46875 19.921875 32.765625 23.578125 
Q 31.5 26.3125 29.984375 27.734375 
Q 27.875 29.6875 24.21875 31.265625 
Q 20.5625 32.859375 16.75 32.859375 
L 15.1875 32.859375 
L 15.1875 34.328125 
Q 19.046875 34.8125 22.921875 37.109375 
Q 26.8125 39.40625 28.5625 42.625 
Q 30.328125 45.84375 30.328125 49.703125 
Q 30.328125 54.734375 27.171875 57.828125 
Q 24.03125 60.9375 19.34375 60.9375 
Q 11.765625 60.9375 6.6875 52.828125 
z
" id="TimesNewRomanPSMT-51"/>
       </defs>
       <use xlink:href="#TimesNewRomanPSMT-51"/>
      </g>
     </g>
    </g>
    <g id="xtick_4">
     <g id="line2d_4">
      <g>
       <use style="stroke:#000000;stroke-width:0.8;" x="121.252009" xlink:href="#m915c9c643c" y="561.6"/>
      </g>
     </g>
     <g id="text_4">
      <!-- 4 -->
      <g transform="translate(118.752009 572.04375)scale(0.1 -0.1)">
       <defs>
        <path d="M 46.53125 24.421875 
L 46.53125 17.484375 
L 37.640625 17.484375 
L 37.640625 0 
L 29.59375 0 
L 29.59375 17.484375 
L 1.5625 17.484375 
L 1.5625 23.734375 
L 32.28125 67.578125 
L 37.640625 67.578125 
L 37.640625 24.421875 
z
M 29.59375 24.421875 
L 29.59375 57.28125 
L 6.34375 24.421875 
z
" id="TimesNewRomanPSMT-52"/>
       </defs>
       <use xlink:href="#TimesNewRomanPSMT-52"/>
      </g>
     </g>
    </g>
    <g id="xtick_5">
     <g id="line2d_5">
      <g>
       <use style="stroke:#000000;stroke-width:0.8;" x="142.509152" xlink:href="#m915c9c643c" y="561.6"/>
      </g>
     </g>
     <g id="text_5">
      <!-- 5 -->
      <g transform="translate(140.009152 572.04375)scale(0.1 -0.1)">
       <defs>
        <path d="M 43.40625 66.21875 
L 39.59375 57.90625 
L 19.671875 57.90625 
L 15.328125 49.03125 
Q 28.265625 47.125 35.84375 39.40625 
Q 42.328125 32.765625 42.328125 23.78125 
Q 42.328125 18.5625 40.203125 14.109375 
Q 38.09375 9.671875 34.859375 6.546875 
Q 31.640625 3.421875 27.6875 1.515625 
Q 22.078125 -1.171875 16.15625 -1.171875 
Q 10.203125 -1.171875 7.484375 0.84375 
Q 4.78125 2.875 4.78125 5.328125 
Q 4.78125 6.6875 5.90625 7.734375 
Q 7.03125 8.796875 8.734375 8.796875 
Q 10.015625 8.796875 10.96875 8.40625 
Q 11.921875 8.015625 14.203125 6.390625 
Q 17.875 3.859375 21.625 3.859375 
Q 27.34375 3.859375 31.65625 8.171875 
Q 35.984375 12.5 35.984375 18.703125 
Q 35.984375 24.703125 32.125 29.90625 
Q 28.265625 35.109375 21.484375 37.9375 
Q 16.15625 40.140625 6.984375 40.484375 
L 19.671875 66.21875 
z
" id="TimesNewRomanPSMT-53"/>
       </defs>
       <use xlink:href="#TimesNewRomanPSMT-53"/>
      </g>
     </g>
    </g>
    <g id="xtick_6">
     <g id="line2d_6">
      <g>
       <use style="stroke:#000000;stroke-width:0.8;" x="163.766295" xlink:href="#m915c9c643c" y="561.6"/>
      </g>
     </g>
     <g id="text_6">
      <!-- 6 -->
      <g transform="translate(161.266295 572.04375)scale(0.1 -0.1)">
       <defs>
        <path d="M 44.828125 67.578125 
L 44.828125 65.765625 
Q 38.375 65.140625 34.296875 63.203125 
Q 30.21875 61.28125 26.234375 57.328125 
Q 22.265625 53.375 19.65625 48.515625 
Q 17.046875 43.65625 15.28125 36.96875 
Q 22.3125 41.796875 29.390625 41.796875 
Q 36.1875 41.796875 41.15625 36.328125 
Q 46.140625 30.859375 46.140625 22.265625 
Q 46.140625 13.96875 41.109375 7.125 
Q 35.0625 -1.171875 25.09375 -1.171875 
Q 18.3125 -1.171875 13.578125 3.328125 
Q 4.296875 12.0625 4.296875 25.984375 
Q 4.296875 34.859375 7.859375 42.859375 
Q 11.421875 50.875 18.03125 57.078125 
Q 24.65625 63.28125 30.703125 65.421875 
Q 36.765625 67.578125 42 67.578125 
z
M 14.453125 33.40625 
Q 13.578125 26.8125 13.578125 22.75 
Q 13.578125 18.0625 15.3125 12.5625 
Q 17.046875 7.078125 20.453125 3.859375 
Q 22.953125 1.5625 26.515625 1.5625 
Q 30.765625 1.5625 34.109375 5.5625 
Q 37.453125 9.578125 37.453125 17 
Q 37.453125 25.34375 34.125 31.4375 
Q 30.8125 37.546875 24.703125 37.546875 
Q 22.859375 37.546875 20.734375 36.765625 
Q 18.609375 35.984375 14.453125 33.40625 
z
" id="TimesNewRomanPSMT-54"/>
       </defs>
       <use xlink:href="#TimesNewRomanPSMT-54"/>
      </g>
     </g>
    </g>
    <g id="xtick_7">
     <g id="line2d_7">
      <g>
       <use style="stroke:#000000;stroke-width:0.8;" x="185.023438" xlink:href="#m915c9c643c" y="561.6"/>
      </g>
     </g>
     <g id="text_7">
      <!-- 7 -->
      <g transform="translate(182.523438 572.04375)scale(0.1 -0.1)">
       <defs>
        <path d="M 10.0625 66.21875 
L 45.5625 66.21875 
L 45.5625 64.359375 
L 23.484375 -1.375 
L 18.015625 -1.375 
L 37.796875 58.25 
L 19.578125 58.25 
Q 14.0625 58.25 11.71875 56.9375 
Q 7.625 54.6875 5.125 50 
L 3.71875 50.53125 
z
" id="TimesNewRomanPSMT-55"/>
       </defs>
       <use xlink:href="#TimesNewRomanPSMT-55"/>
      </g>
     </g>
    </g>
    <g id="xtick_8">
     <g id="line2d_8">
      <g>
       <use style="stroke:#000000;stroke-width:0.8;" x="206.28058" xlink:href="#m915c9c643c" y="561.6"/>
      </g>
     </g>
     <g id="text_8">
      <!-- 8 -->
      <g transform="translate(203.78058 572.04375)scale(0.1 -0.1)">
       <defs>
        <path d="M 19.1875 33.34375 
Q 11.328125 39.796875 9.046875 43.703125 
Q 6.78125 47.609375 6.78125 51.8125 
Q 6.78125 58.25 11.765625 62.90625 
Q 16.75 67.578125 25 67.578125 
Q 33.015625 67.578125 37.890625 63.234375 
Q 42.78125 58.890625 42.78125 53.328125 
Q 42.78125 49.609375 40.140625 45.75 
Q 37.5 41.890625 29.15625 36.671875 
Q 37.75 30.03125 40.53125 26.21875 
Q 44.234375 21.234375 44.234375 15.71875 
Q 44.234375 8.734375 38.90625 3.78125 
Q 33.59375 -1.171875 24.953125 -1.171875 
Q 15.53125 -1.171875 10.25 4.734375 
Q 6.0625 9.46875 6.0625 15.09375 
Q 6.0625 19.484375 9.015625 23.796875 
Q 11.96875 28.125 19.1875 33.34375 
z
M 26.859375 38.578125 
Q 32.71875 43.84375 34.28125 46.890625 
Q 35.84375 49.953125 35.84375 53.8125 
Q 35.84375 58.9375 32.953125 61.84375 
Q 30.078125 64.75 25.09375 64.75 
Q 20.125 64.75 17 61.859375 
Q 13.875 58.984375 13.875 55.125 
Q 13.875 52.59375 15.15625 50.046875 
Q 16.453125 47.515625 18.84375 45.21875 
z
M 21.484375 31.5 
Q 17.4375 28.078125 15.484375 24.046875 
Q 13.53125 20.015625 13.53125 15.328125 
Q 13.53125 9.03125 16.96875 5.25 
Q 20.40625 1.46875 25.734375 1.46875 
Q 31 1.46875 34.171875 4.4375 
Q 37.359375 7.421875 37.359375 11.671875 
Q 37.359375 15.1875 35.5 17.96875 
Q 32.03125 23.140625 21.484375 31.5 
z
" id="TimesNewRomanPSMT-56"/>
       </defs>
       <use xlink:href="#TimesNewRomanPSMT-56"/>
      </g>
     </g>
    </g>
    <g id="xtick_9">
     <g id="line2d_9">
      <g>
       <use style="stroke:#000000;stroke-width:0.8;" x="227.537723" xlink:href="#m915c9c643c" y="561.6"/>
      </g>
     </g>
     <g id="text_9">
      <!-- 9 -->
      <g transform="translate(225.037723 572.04375)scale(0.1 -0.1)">
       <defs>
        <path d="M 5.28125 -1.375 
L 5.28125 0.4375 
Q 11.625 0.53125 17.09375 3.390625 
Q 22.5625 6.25 27.65625 13.375 
Q 32.765625 20.515625 34.765625 29.046875 
Q 27.09375 24.125 20.90625 24.125 
Q 13.921875 24.125 8.9375 29.515625 
Q 3.953125 34.90625 3.953125 43.84375 
Q 3.953125 52.546875 8.9375 59.328125 
Q 14.9375 67.578125 24.609375 67.578125 
Q 32.765625 67.578125 38.578125 60.84375 
Q 45.703125 52.484375 45.703125 40.234375 
Q 45.703125 29.203125 40.28125 19.65625 
Q 34.859375 10.109375 25.203125 3.8125 
Q 17.328125 -1.375 8.0625 -1.375 
z
M 35.546875 32.671875 
Q 36.421875 39.015625 36.421875 42.828125 
Q 36.421875 47.5625 34.8125 53.046875 
Q 33.203125 58.546875 30.25 61.46875 
Q 27.296875 64.40625 23.53125 64.40625 
Q 19.1875 64.40625 15.90625 60.5 
Q 12.640625 56.59375 12.640625 48.875 
Q 12.640625 38.578125 17 32.765625 
Q 20.171875 28.5625 24.8125 28.5625 
Q 27.046875 28.5625 30.125 29.640625 
Q 33.203125 30.71875 35.546875 32.671875 
z
" id="TimesNewRomanPSMT-57"/>
       </defs>
       <use xlink:href="#TimesNewRomanPSMT-57"/>
      </g>
     </g>
    </g>
    <g id="xtick_10">
     <g id="line2d_10">
      <g>
       <use style="stroke:#000000;stroke-width:0.8;" x="248.794866" xlink:href="#m915c9c643c" y="561.6"/>
      </g>
     </g>
     <g id="text_10">
      <!-- 10 -->
      <g transform="translate(243.794866 572.04375)scale(0.1 -0.1)">
       <defs>
        <path d="M 3.609375 32.71875 
Q 3.609375 44.046875 7.03125 52.21875 
Q 10.453125 60.40625 16.109375 64.40625 
Q 20.515625 67.578125 25.203125 67.578125 
Q 32.8125 67.578125 38.875 59.8125 
Q 46.4375 50.203125 46.4375 33.734375 
Q 46.4375 22.21875 43.109375 14.15625 
Q 39.796875 6.109375 34.640625 2.46875 
Q 29.5 -1.171875 24.703125 -1.171875 
Q 15.234375 -1.171875 8.9375 10.015625 
Q 3.609375 19.4375 3.609375 32.71875 
z
M 13.1875 31.5 
Q 13.1875 17.828125 16.546875 9.1875 
Q 19.34375 1.90625 24.859375 1.90625 
Q 27.484375 1.90625 30.3125 4.265625 
Q 33.15625 6.640625 34.625 12.203125 
Q 36.859375 20.609375 36.859375 35.890625 
Q 36.859375 47.21875 34.515625 54.78125 
Q 32.765625 60.40625 29.984375 62.75 
Q 27.984375 64.359375 25.140625 64.359375 
Q 21.828125 64.359375 19.234375 61.375 
Q 15.71875 57.328125 14.453125 48.625 
Q 13.1875 39.9375 13.1875 31.5 
z
" id="TimesNewRomanPSMT-48"/>
       </defs>
       <use xlink:href="#TimesNewRomanPSMT-49"/>
       <use x="50" xlink:href="#TimesNewRomanPSMT-48"/>
      </g>
     </g>
    </g>
    <g id="xtick_11">
     <g id="line2d_11">
      <g>
       <use style="stroke:#000000;stroke-width:0.8;" x="270.052009" xlink:href="#m915c9c643c" y="561.6"/>
      </g>
     </g>
     <g id="text_11">
      <!-- 11 -->
      <g transform="translate(265.239509 572.04375)scale(0.1 -0.1)">
       <use xlink:href="#TimesNewRomanPSMT-49"/>
       <use x="46.25" xlink:href="#TimesNewRomanPSMT-49"/>
      </g>
     </g>
    </g>
    <g id="xtick_12">
     <g id="line2d_12">
      <g>
       <use style="stroke:#000000;stroke-width:0.8;" x="291.309152" xlink:href="#m915c9c643c" y="561.6"/>
      </g>
     </g>
     <g id="text_12">
      <!-- 12 -->
      <g transform="translate(286.309152 572.04375)scale(0.1 -0.1)">
       <use xlink:href="#TimesNewRomanPSMT-49"/>
       <use x="50" xlink:href="#TimesNewRomanPSMT-50"/>
      </g>
     </g>
    </g>
    <g id="xtick_13">
     <g id="line2d_13">
      <g>
       <use style="stroke:#000000;stroke-width:0.8;" x="312.566295" xlink:href="#m915c9c643c" y="561.6"/>
      </g>
     </g>
     <g id="text_13">
      <!-- 13 -->
      <g transform="translate(307.566295 572.04375)scale(0.1 -0.1)">
       <use xlink:href="#TimesNewRomanPSMT-49"/>
       <use x="50" xlink:href="#TimesNewRomanPSMT-51"/>
      </g>
     </g>
    </g>
    <g id="xtick_14">
     <g id="line2d_14">
      <g>
       <use style="stroke:#000000;stroke-width:0.8;" x="333.823437" xlink:href="#m915c9c643c" y="561.6"/>
      </g>
     </g>
     <g id="text_14">
      <!-- 14 -->
      <g transform="translate(328.823437 572.04375)scale(0.1 -0.1)">
       <use xlink:href="#TimesNewRomanPSMT-49"/>
       <use x="50" xlink:href="#TimesNewRomanPSMT-52"/>
      </g>
     </g>
    </g>
    <g id="xtick_15">
     <g id="line2d_15">
      <g>
       <use style="stroke:#000000;stroke-width:0.8;" x="355.08058" xlink:href="#m915c9c643c" y="561.6"/>
      </g>
     </g>
     <g id="text_15">
      <!-- 15 -->
      <g transform="translate(350.08058 572.04375)scale(0.1 -0.1)">
       <use xlink:href="#TimesNewRomanPSMT-49"/>
       <use x="50" xlink:href="#TimesNewRomanPSMT-53"/>
      </g>
     </g>
    </g>
    <g id="xtick_16">
     <g id="line2d_16">
      <g>
       <use style="stroke:#000000;stroke-width:0.8;" x="376.337723" xlink:href="#m915c9c643c" y="561.6"/>
      </g>
     </g>
     <g id="text_16">
      <!-- 16 -->
      <g transform="translate(371.337723 572.04375)scale(0.1 -0.1)">
       <use xlink:href="#TimesNewRomanPSMT-49"/>
       <use x="50" xlink:href="#TimesNewRomanPSMT-54"/>
      </g>
     </g>
    </g>
    <g id="xtick_17">
     <g id="line2d_17">
      <g>
       <use style="stroke:#000000;stroke-width:0.8;" x="397.594866" xlink:href="#m915c9c643c" y="561.6"/>
      </g>
     </g>
     <g id="text_17">
      <!-- 17 -->
      <g transform="translate(392.594866 572.04375)scale(0.1 -0.1)">
       <use xlink:href="#TimesNewRomanPSMT-49"/>
       <use x="50" xlink:href="#TimesNewRomanPSMT-55"/>
      </g>
     </g>
    </g>
    <g id="xtick_18">
     <g id="line2d_18">
      <g>
       <use style="stroke:#000000;stroke-width:0.8;" x="418.852009" xlink:href="#m915c9c643c" y="561.6"/>
      </g>
     </g>
     <g id="text_18">
      <!-- 18 -->
      <g transform="translate(413.852009 572.04375)scale(0.1 -0.1)">
       <use xlink:href="#TimesNewRomanPSMT-49"/>
       <use x="50" xlink:href="#TimesNewRomanPSMT-56"/>
      </g>
     </g>
    </g>
    <g id="xtick_19">
     <g id="line2d_19">
      <g>
       <use style="stroke:#000000;stroke-width:0.8;" x="440.109152" xlink:href="#m915c9c643c" y="561.6"/>
      </g>
     </g>
     <g id="text_19">
      <!-- 19 -->
      <g transform="translate(435.109152 572.04375)scale(0.1 -0.1)">
       <use xlink:href="#TimesNewRomanPSMT-49"/>
       <use x="50" xlink:href="#TimesNewRomanPSMT-57"/>
      </g>
     </g>
    </g>
    <g id="xtick_20">
     <g id="line2d_20">
      <g>
       <use style="stroke:#000000;stroke-width:0.8;" x="461.366295" xlink:href="#m915c9c643c" y="561.6"/>
      </g>
     </g>
     <g id="text_20">
      <!-- 20 -->
      <g transform="translate(456.366295 572.04375)scale(0.1 -0.1)">
       <use xlink:href="#TimesNewRomanPSMT-50"/>
       <use x="50" xlink:href="#TimesNewRomanPSMT-48"/>
      </g>
     </g>
    </g>
    <g id="xtick_21">
     <g id="line2d_21">
      <g>
       <use style="stroke:#000000;stroke-width:0.8;" x="482.623437" xlink:href="#m915c9c643c" y="561.6"/>
      </g>
     </g>
     <g id="text_21">
      <!-- 21 -->
      <g transform="translate(477.623437 572.04375)scale(0.1 -0.1)">
       <use xlink:href="#TimesNewRomanPSMT-50"/>
       <use x="50" xlink:href="#TimesNewRomanPSMT-49"/>
      </g>
     </g>
    </g>
    <g id="text_22">
     <!-- 训练轮次 -->
     <g transform="translate(223.423437 592.45625)scale(0.18 -0.18)">
      <defs>
       <path d="M 61.328125 71.484375 
L 69.921875 67.96875 
L 66.796875 65.625 
L 66.796875 16.40625 
Q 66.796875 12.890625 67.1875 4.296875 
L 61.328125 1.171875 
Q 61.71875 16.40625 61.71875 36.90625 
Q 61.71875 57.421875 61.328125 71.484375 
z
M 80.46875 78.515625 
L 89.0625 75 
L 85.9375 72.265625 
L 85.9375 11.328125 
Q 85.9375 3.515625 86.328125 -5.46875 
L 80.46875 -8.59375 
Q 80.859375 -1.171875 80.859375 7.8125 
L 80.859375 64.453125 
Q 80.859375 68.75 80.46875 78.515625 
z
M 14.84375 76.171875 
L 15.625 76.953125 
Q 23.4375 73.046875 25.96875 70.703125 
Q 28.515625 68.359375 28.125 65.625 
Q 27.734375 62.890625 26.5625 61.71875 
Q 25.390625 60.546875 24.609375 60.546875 
Q 23.4375 60.546875 22.265625 64.0625 
Q 20.703125 68.75 14.84375 76.171875 
z
M 25.390625 10.9375 
L 37.5 23.828125 
L 38.28125 23.046875 
Q 27.34375 8.203125 23.828125 0 
L 18.75 6.25 
Q 20.703125 8.203125 20.3125 11.328125 
L 20.3125 44.53125 
L 16.015625 44.53125 
Q 12.890625 44.53125 8.59375 43.359375 
L 5.078125 46.875 
L 19.921875 46.875 
L 22.65625 50.78125 
L 28.515625 45.703125 
L 25.390625 43.359375 
z
M 43.359375 78.125 
L 52.34375 74.21875 
L 49.21875 71.09375 
Q 49.21875 48.828125 49.015625 35.9375 
Q 48.828125 23.046875 43.9375 11.71875 
Q 39.0625 0.390625 24.609375 -9.765625 
L 23.4375 -8.984375 
Q 35.9375 2.734375 39.84375 14.0625 
Q 43.75 25.390625 43.75 41.40625 
Q 43.75 57.421875 43.359375 78.125 
z
" id="SimSun-35757"/>
       <path d="M 10.9375 49.609375 
L 27.734375 50.78125 
Q 30.46875 55.078125 33.203125 61.328125 
L 40.625 55.46875 
L 37.109375 54.296875 
Q 24.609375 39.0625 12.109375 25.78125 
Q 22.265625 26.953125 36.71875 29.6875 
L 37.109375 28.125 
Q 13.671875 21.875 10.15625 17.578125 
L 5.078125 25.78125 
Q 8.59375 26.953125 12.5 31.046875 
Q 16.40625 35.15625 26.171875 48.4375 
Q 21.484375 48.046875 16.984375 46.671875 
Q 12.5 45.3125 9.765625 42.578125 
L 5.078125 50.390625 
Q 8.59375 51.171875 13.859375 60.9375 
Q 19.140625 70.703125 22.265625 81.640625 
L 30.859375 76.5625 
L 26.5625 74.21875 
Q 19.140625 62.109375 10.9375 49.609375 
z
M 4.6875 5.859375 
Q 19.53125 9.765625 37.890625 15.625 
L 38.28125 14.0625 
Q 24.21875 7.8125 11.71875 1.171875 
L 9.375 -1.5625 
z
M 42.1875 35.15625 
Q 45.3125 39.84375 48.4375 48.046875 
Q 46.484375 48.046875 42.1875 46.875 
L 38.671875 50.390625 
L 49.21875 50.390625 
L 54.6875 64.453125 
L 48.828125 64.453125 
Q 43.75 64.453125 39.453125 63.28125 
L 35.9375 66.796875 
L 55.46875 66.796875 
Q 58.984375 78.125 59.375 82.03125 
L 67.578125 77.34375 
L 64.0625 75.390625 
Q 62.890625 72.65625 60.546875 66.796875 
L 80.078125 66.796875 
L 85.15625 71.875 
L 92.1875 64.453125 
L 59.765625 64.453125 
L 54.296875 50.390625 
L 66.40625 50.390625 
L 69.140625 53.90625 
L 75.390625 49.21875 
L 72.265625 46.875 
L 72.265625 32.8125 
L 82.8125 32.8125 
L 87.5 37.5 
L 94.53125 30.46875 
L 72.265625 30.46875 
L 72.265625 2.34375 
Q 72.65625 -7.03125 62.890625 -9.375 
Q 62.890625 -3.515625 51.5625 -0.78125 
L 51.5625 0.78125 
Q 60.9375 0 64.0625 0 
Q 67.1875 0 67.1875 4.296875 
L 67.1875 30.46875 
L 46.484375 30.46875 
L 43.75 27.734375 
L 38.671875 33.203125 
z
M 53.90625 16.015625 
Q 41.40625 0 29.6875 -7.8125 
L 28.515625 -6.640625 
Q 35.546875 0 40.625 7.03125 
Q 45.703125 14.0625 49.609375 23.046875 
L 57.421875 17.1875 
z
M 76.5625 21.484375 
Q 90.234375 12.890625 92.765625 9.953125 
Q 95.3125 7.03125 95.3125 4.296875 
Q 95.3125 1.953125 94.140625 -0.578125 
Q 92.96875 -3.125 92.1875 -3.125 
Q 91.015625 -3.125 89.0625 1.953125 
Q 86.328125 8.984375 75.78125 20.3125 
z
M 53.515625 48.046875 
Q 50.390625 41.015625 46.09375 32.8125 
L 67.1875 32.8125 
L 67.1875 48.046875 
z
" id="SimSun-32451"/>
       <path d="M 25.390625 39.0625 
Q 25.390625 48.828125 25 55.46875 
L 33.984375 51.5625 
L 30.46875 48.828125 
L 30.46875 39.0625 
L 33.59375 39.0625 
L 38.28125 43.75 
L 44.921875 36.71875 
L 30.46875 36.71875 
L 30.46875 22.65625 
L 46.484375 27.734375 
L 46.875 26.171875 
L 30.46875 19.140625 
Q 30.46875 4.296875 30.859375 -6.640625 
L 25 -9.375 
Q 25.390625 6.640625 25.390625 17.1875 
Q 10.15625 10.9375 8.59375 7.8125 
L 3.90625 15.625 
Q 10.546875 16.796875 25.390625 21.09375 
L 25.390625 36.71875 
L 14.84375 36.71875 
L 12.109375 33.984375 
L 7.421875 39.0625 
L 10.546875 41.40625 
L 17.578125 60.9375 
L 14.84375 60.9375 
Q 11.71875 60.9375 7.421875 59.765625 
L 3.90625 63.28125 
L 18.359375 63.28125 
Q 20.703125 70.703125 23.4375 81.640625 
L 32.03125 75.78125 
L 27.34375 73.4375 
L 23.828125 63.28125 
L 35.546875 63.28125 
L 40.625 68.359375 
L 47.65625 60.9375 
L 23.046875 60.9375 
L 15.234375 39.0625 
z
M 71.09375 76.5625 
L 67.578125 73.828125 
Q 76.953125 52.34375 95.703125 47.65625 
L 95.703125 46.484375 
Q 90.234375 45.703125 87.890625 41.796875 
Q 72.65625 53.125 66.40625 71.875 
Q 57.421875 51.5625 42.578125 40.625 
L 41.796875 41.796875 
Q 48.4375 48.4375 53.90625 58.390625 
Q 59.375 68.359375 63.28125 81.640625 
z
M 52.34375 24.609375 
Q 52.34375 36.71875 51.953125 44.921875 
L 61.328125 40.234375 
L 57.421875 37.5 
L 57.421875 20.3125 
Q 71.09375 29.296875 78.90625 39.84375 
L 85.15625 32.421875 
L 80.078125 31.640625 
Q 68.75 23.828125 57.421875 18.359375 
L 57.421875 5.859375 
Q 57.03125 -2.34375 64.453125 -1.5625 
L 77.734375 -1.5625 
Q 81.640625 -1.5625 82.03125 5.078125 
Q 82.421875 11.71875 82.421875 16.015625 
L 83.984375 16.015625 
Q 84.375 10.9375 84.953125 5.859375 
Q 85.546875 0.78125 89.84375 -0.390625 
Q 87.5 -5.859375 80.078125 -6.25 
L 61.328125 -6.25 
Q 51.953125 -6.25 52.34375 2.34375 
z
" id="SimSun-36718"/>
       <path d="M 76.171875 42.578125 
L 82.421875 56.25 
L 50.390625 56.25 
Q 47.265625 50.78125 43.75 45.109375 
Q 40.234375 39.453125 32.421875 31.640625 
L 31.25 32.8125 
Q 40.234375 44.140625 45.703125 58.59375 
Q 51.171875 73.046875 52.34375 81.640625 
L 61.71875 76.953125 
Q 58.59375 75.390625 57.03125 71.875 
Q 55.46875 68.359375 51.171875 58.59375 
L 82.03125 58.59375 
L 86.328125 62.890625 
L 93.359375 55.46875 
Q 89.453125 54.6875 86.71875 52.34375 
Q 83.984375 50 77.34375 41.796875 
z
M 63.28125 45.3125 
Q 60.9375 19.140625 49.609375 6.828125 
Q 38.28125 -5.46875 22.65625 -10.15625 
L 21.875 -8.984375 
Q 41.796875 0 49.609375 14.25 
Q 57.421875 28.515625 57.8125 53.125 
L 66.796875 48.4375 
L 64.453125 46.484375 
Q 67.1875 26.5625 75.1875 14.25 
Q 83.203125 1.953125 96.09375 -2.734375 
L 95.703125 -3.90625 
Q 89.84375 -3.515625 87.109375 -7.8125 
Q 77.34375 -0.390625 70.890625 12.890625 
Q 64.453125 26.171875 63.28125 45.3125 
z
M 11.71875 77.34375 
Q 19.921875 73.046875 23.234375 69.53125 
Q 26.5625 66.015625 26.5625 63.671875 
Q 26.5625 61.328125 24.796875 58.984375 
Q 23.046875 56.640625 22.65625 56.640625 
Q 21.09375 56.640625 19.921875 61.71875 
Q 17.96875 68.75 10.9375 76.171875 
z
M 6.640625 25.78125 
Q 9.375 25.390625 11.71875 25.390625 
Q 15.234375 25.390625 17.1875 26.953125 
Q 19.140625 28.515625 35.546875 67.1875 
L 37.109375 66.40625 
Q 21.875 26.5625 21.09375 25 
Q 20.3125 23.4375 20.3125 18.546875 
Q 20.3125 13.671875 21.484375 5.46875 
Q 22.65625 -3.125 18.9375 -2.734375 
Q 15.234375 -2.34375 14.453125 -0.390625 
Q 13.671875 1.5625 13.671875 3.125 
Q 13.671875 4.6875 14.453125 8.984375 
Q 15.625 15.234375 15.234375 18.546875 
Q 14.84375 21.875 6.640625 24.21875 
z
" id="SimSun-27425"/>
      </defs>
      <use xlink:href="#SimSun-35757"/>
      <use x="100" xlink:href="#SimSun-32451"/>
      <use x="200" xlink:href="#SimSun-36718"/>
      <use x="300" xlink:href="#SimSun-27425"/>
     </g>
    </g>
   </g>
   <g id="matplotlib.axis_2">
    <g id="ytick_1">
     <g id="line2d_22">
      <defs>
       <path d="M 0 0 
L 3.5 0 
" id="m7b72db796e" style="stroke:#000000;stroke-width:0.8;"/>
      </defs>
      <g>
       <use style="stroke:#000000;stroke-width:0.8;" x="36.223438" xlink:href="#m7b72db796e" y="561.6"/>
      </g>
     </g>
     <g id="text_23">
      <!-- 0 -->
      <g transform="translate(27.723438 565.071875)scale(0.1 -0.1)">
       <use xlink:href="#TimesNewRomanPSMT-48"/>
      </g>
     </g>
    </g>
    <g id="ytick_2">
     <g id="line2d_23">
      <g>
       <use style="stroke:#000000;stroke-width:0.8;" x="36.223438" xlink:href="#m7b72db796e" y="506.16"/>
      </g>
     </g>
     <g id="text_24">
      <!-- 1 -->
      <g transform="translate(27.723438 509.631875)scale(0.1 -0.1)">
       <use xlink:href="#TimesNewRomanPSMT-49"/>
      </g>
     </g>
    </g>
    <g id="ytick_3">
     <g id="line2d_24">
      <g>
       <use style="stroke:#000000;stroke-width:0.8;" x="36.223438" xlink:href="#m7b72db796e" y="450.72"/>
      </g>
     </g>
     <g id="text_25">
      <!-- 2 -->
      <g transform="translate(27.723438 454.191875)scale(0.1 -0.1)">
       <use xlink:href="#TimesNewRomanPSMT-50"/>
      </g>
     </g>
    </g>
    <g id="ytick_4">
     <g id="line2d_25">
      <g>
       <use style="stroke:#000000;stroke-width:0.8;" x="36.223438" xlink:href="#m7b72db796e" y="395.28"/>
      </g>
     </g>
     <g id="text_26">
      <!-- 3 -->
      <g transform="translate(27.723438 398.751875)scale(0.1 -0.1)">
       <use xlink:href="#TimesNewRomanPSMT-51"/>
      </g>
     </g>
    </g>
    <g id="ytick_5">
     <g id="line2d_26">
      <g>
       <use style="stroke:#000000;stroke-width:0.8;" x="36.223438" xlink:href="#m7b72db796e" y="339.84"/>
      </g>
     </g>
     <g id="text_27">
      <!-- 4 -->
      <g transform="translate(27.723438 343.311875)scale(0.1 -0.1)">
       <use xlink:href="#TimesNewRomanPSMT-52"/>
      </g>
     </g>
    </g>
    <g id="ytick_6">
     <g id="line2d_27">
      <g>
       <use style="stroke:#000000;stroke-width:0.8;" x="36.223438" xlink:href="#m7b72db796e" y="284.4"/>
      </g>
     </g>
     <g id="text_28">
      <!-- 5 -->
      <g transform="translate(27.723438 287.871875)scale(0.1 -0.1)">
       <use xlink:href="#TimesNewRomanPSMT-53"/>
      </g>
     </g>
    </g>
    <g id="ytick_7">
     <g id="line2d_28">
      <g>
       <use style="stroke:#000000;stroke-width:0.8;" x="36.223438" xlink:href="#m7b72db796e" y="228.96"/>
      </g>
     </g>
     <g id="text_29">
      <!-- 6 -->
      <g transform="translate(27.723438 232.431875)scale(0.1 -0.1)">
       <use xlink:href="#TimesNewRomanPSMT-54"/>
      </g>
     </g>
    </g>
    <g id="ytick_8">
     <g id="line2d_29">
      <g>
       <use style="stroke:#000000;stroke-width:0.8;" x="36.223438" xlink:href="#m7b72db796e" y="173.52"/>
      </g>
     </g>
     <g id="text_30">
      <!-- 7 -->
      <g transform="translate(27.723438 176.991875)scale(0.1 -0.1)">
       <use xlink:href="#TimesNewRomanPSMT-55"/>
      </g>
     </g>
    </g>
    <g id="ytick_9">
     <g id="line2d_30">
      <g>
       <use style="stroke:#000000;stroke-width:0.8;" x="36.223438" xlink:href="#m7b72db796e" y="118.08"/>
      </g>
     </g>
     <g id="text_31">
      <!-- 8 -->
      <g transform="translate(27.723438 121.551875)scale(0.1 -0.1)">
       <use xlink:href="#TimesNewRomanPSMT-56"/>
      </g>
     </g>
    </g>
    <g id="ytick_10">
     <g id="line2d_31">
      <g>
       <use style="stroke:#000000;stroke-width:0.8;" x="36.223438" xlink:href="#m7b72db796e" y="62.64"/>
      </g>
     </g>
     <g id="text_32">
      <!-- 9 -->
      <g transform="translate(27.723438 66.111875)scale(0.1 -0.1)">
       <use xlink:href="#TimesNewRomanPSMT-57"/>
      </g>
     </g>
    </g>
    <g id="text_33">
     <!-- 训练损失 -->
     <g transform="translate(21.403125 320.4)rotate(-90)scale(0.18 -0.18)">
      <defs>
       <path d="M 22.65625 58.203125 
Q 22.65625 73.4375 22.265625 80.859375 
L 32.03125 76.5625 
L 28.125 73.828125 
L 28.125 58.203125 
L 32.03125 58.203125 
L 36.328125 62.5 
L 42.96875 55.859375 
L 28.125 55.859375 
L 28.125 41.015625 
L 39.453125 47.65625 
L 40.234375 46.484375 
L 28.125 37.5 
L 28.125 0.78125 
Q 28.125 -5.078125 19.921875 -8.59375 
Q 20.703125 -3.515625 8.984375 -0.390625 
L 8.984375 1.171875 
Q 16.40625 0.390625 19.71875 0.1875 
Q 23.046875 0 22.65625 5.859375 
L 22.65625 33.59375 
Q 11.328125 25.78125 9.765625 22.265625 
L 3.90625 28.90625 
Q 8.203125 30.078125 22.65625 38.671875 
L 22.65625 55.859375 
L 11.71875 55.859375 
L 7.421875 55.078125 
L 4.296875 58.203125 
z
M 47.65625 51.171875 
Q 48.046875 57.8125 48.046875 63.859375 
Q 48.046875 69.921875 47.65625 76.953125 
L 53.125 73.828125 
L 77.734375 73.828125 
L 80.46875 76.953125 
L 86.328125 72.65625 
L 83.203125 70.3125 
Q 83.203125 60.15625 83.59375 54.296875 
L 78.125 51.953125 
L 78.125 55.46875 
L 53.125 55.46875 
L 53.125 53.125 
z
M 53.125 71.484375 
L 53.125 57.8125 
L 78.125 57.8125 
L 78.125 71.484375 
z
M 87.109375 40.234375 
Q 87.109375 20.3125 87.5 12.890625 
L 82.03125 10.9375 
L 82.03125 41.40625 
L 49.21875 41.40625 
L 49.21875 11.328125 
L 43.75 8.984375 
Q 44.140625 18.359375 44.140625 29.09375 
Q 44.140625 39.84375 43.75 46.875 
L 49.21875 43.75 
L 81.25 43.75 
L 83.984375 47.65625 
L 90.625 42.96875 
z
M 61.328125 37.109375 
L 70.3125 32.8125 
L 67.1875 30.46875 
Q 65.625 12.890625 57.03125 3.703125 
Q 48.4375 -5.46875 29.296875 -9.375 
L 28.90625 -8.203125 
Q 42.1875 -3.90625 49.609375 2.53125 
Q 57.03125 8.984375 59.171875 17.96875 
Q 61.328125 26.953125 61.328125 37.109375 
z
M 65.234375 10.9375 
Q 80.859375 5.859375 86.328125 3.125 
Q 91.796875 0.390625 91.796875 -2.921875 
Q 91.796875 -6.25 91.015625 -7.421875 
Q 90.234375 -8.59375 89.84375 -8.59375 
Q 88.671875 -8.59375 86.328125 -5.859375 
Q 83.203125 -1.953125 77.734375 1.953125 
Q 72.265625 5.859375 64.84375 9.765625 
z
" id="SimSun-25439"/>
       <path d="M 14.84375 39.453125 
L 13.671875 40.234375 
Q 22.265625 56.25 24.21875 73.046875 
L 33.203125 68.359375 
Q 29.6875 66.796875 26.5625 58.59375 
L 46.875 58.59375 
L 46.875 71.09375 
Q 46.875 75.78125 46.484375 81.640625 
L 56.640625 76.953125 
L 52.734375 74.21875 
L 52.734375 58.59375 
L 71.484375 58.59375 
L 76.953125 64.0625 
L 84.765625 56.25 
L 52.734375 56.25 
Q 51.953125 44.921875 50.78125 36.328125 
L 78.515625 36.328125 
L 84.765625 42.578125 
L 93.359375 33.984375 
L 55.078125 33.984375 
Q 63.28125 16.40625 74.609375 8 
Q 85.9375 -0.390625 94.921875 -1.5625 
L 94.921875 -3.125 
Q 87.5 -4.296875 85.9375 -8.59375 
Q 76.953125 -3.515625 67.578125 7.03125 
Q 58.203125 17.578125 53.125 33.984375 
L 50.390625 33.984375 
Q 46.09375 16.015625 35.734375 6.25 
Q 25.390625 -3.515625 7.03125 -9.375 
L 6.25 -8.203125 
Q 21.875 -1.5625 30.859375 7.421875 
Q 39.84375 16.40625 44.53125 33.984375 
L 20.3125 33.984375 
Q 15.234375 33.984375 10.9375 32.8125 
L 7.421875 36.328125 
L 44.921875 36.328125 
Q 46.484375 46.484375 46.875 56.25 
L 25.78125 56.25 
Q 20.3125 45.703125 14.84375 39.453125 
z
" id="SimSun-22833"/>
      </defs>
      <use xlink:href="#SimSun-35757"/>
      <use x="100" xlink:href="#SimSun-32451"/>
      <use x="200" xlink:href="#SimSun-25439"/>
      <use x="300" xlink:href="#SimSun-22833"/>
     </g>
    </g>
   </g>
   <g id="line2d_32">
    <path clip-path="url(#pdacd540901)" d="M 57.48058 345.272898 
L 78.737723 390.53105 
L 99.994866 403.347535 
L 121.252009 409.586435 
L 142.509152 416.025773 
L 163.766295 421.125473 
L 185.023438 425.476616 
L 206.28058 429.348345 
L 227.537723 432.90406 
L 248.794866 436.213696 
L 270.052009 446.962567 
L 291.309152 450.831625 
L 312.566295 453.095552 
L 333.823437 454.908331 
L 355.08058 458.359664 
L 376.337723 459.284542 
L 397.594866 460.298192 
L 418.852009 460.519942 
L 440.109152 460.784182 
L 461.366295 460.876258 
L 482.623437 460.89545 
" style="fill:none;stroke:#c21010;stroke-linecap:square;stroke-width:2;"/>
   </g>
   <g id="line2d_33">
    <path clip-path="url(#pdacd540901)" d="M 57.48058 18.171576 
L 78.737723 312.375024 
L 99.994866 330.864264 
L 121.252009 341.17056 
L 142.509152 350.534376 
L 163.766295 357.508728 
L 185.023438 363.684744 
L 206.28058 368.702064 
L 227.537723 373.098456 
L 248.794866 376.934904 
L 270.052009 380.3112 
L 291.309152 383.460192 
L 312.566295 392.718672 
L 333.823437 395.906472 
L 355.08058 397.846872 
L 376.337723 401.217624 
L 397.594866 402.104664 
L 418.852009 403.113672 
L 440.109152 403.34652 
L 461.366295 403.634808 
L 482.623437 403.795584 
" style="fill:none;stroke:#e64848;stroke-linecap:square;stroke-width:2;"/>
   </g>
   <g id="line2d_34">
    <path clip-path="url(#pdacd540901)" d="M 57.48058 191.499192 
L 78.737723 340.577352 
L 99.994866 358.589808 
L 121.252009 369.522576 
L 142.509152 377.738784 
L 163.766295 384.52464 
L 185.023438 390.063096 
L 206.28058 395.102592 
L 227.537723 399.609864 
L 248.794866 403.701336 
L 270.052009 414.07416 
L 291.309152 417.406104 
L 312.566295 419.557176 
L 333.823437 421.464312 
L 355.08058 423.049896 
L 376.337723 426.509352 
L 397.594866 427.2966 
L 418.852009 428.300064 
L 440.109152 428.549544 
L 461.366295 428.854464 
L 482.623437 428.79348 
" style="fill:none;stroke:#21e1e1;stroke-linecap:square;stroke-width:2;"/>
   </g>
   <g id="line2d_35">
    <path clip-path="url(#pdacd540901)" d="M 57.48058 337.245408 
L 78.737723 385.82748 
L 99.994866 396.954288 
L 121.252009 401.916168 
L 142.509152 407.715192 
L 163.766295 412.699248 
L 185.023438 417.056832 
L 206.28058 420.981984 
L 227.537723 424.41372 
L 248.794866 435.124728 
L 270.052009 441.439344 
L 291.309152 445.297968 
L 312.566295 446.2848 
L 333.823437 447.493392 
L 355.08058 447.848208 
L 376.337723 447.848208 
L 397.594866 447.86484 
L 418.852009 447.986808 
L 440.109152 447.992352 
L 461.366295 447.981264 
L 482.623437 448.036704 
" style="fill:none;stroke:#125c13;stroke-linecap:square;stroke-width:2;"/>
   </g>
   <g id="line2d_36">
    <path clip-path="url(#pdacd540901)" d="M 57.48058 351.931464 
L 78.737723 396.05616 
L 99.994866 403.347535 
L 121.252009 406.900224 
L 142.509152 412.405416 
L 163.766295 419.662512 
L 185.023438 425.638944 
L 206.28058 430.73388 
L 227.537723 440.114328 
L 248.794866 446.31252 
L 270.052009 449.899488 
L 291.309152 451.978488 
L 312.566295 453.236976 
L 333.823437 454.201632 
L 355.08058 454.750488 
L 376.337723 455.12748 
L 397.594866 455.393592 
L 418.852009 455.59872 
L 440.109152 455.68188 
L 461.366295 455.698512 
L 482.623437 455.748408 
" style="fill:none;stroke:#3120e0;stroke-linecap:square;stroke-width:2;"/>
   </g>
   <g id="line2d_37">
    <path clip-path="url(#pdacd540901)" d="M 59.084215 -1 
L 78.737723 290.071512 
L 99.994866 311.670936 
L 121.252009 323.213544 
L 142.509152 333.10404 
L 163.766295 341.081856 
L 185.023438 347.535072 
L 206.28058 353.073528 
L 227.537723 358.05204 
L 248.794866 362.509416 
L 270.052009 366.5898 
L 291.309152 370.476144 
L 312.566295 374.368032 
L 333.823437 378.165672 
L 355.08058 383.232888 
L 376.337723 386.986176 
L 397.594866 386.980632 
L 418.852009 388.671552 
L 440.109152 389.62512 
L 461.366295 389.852424 
L 482.623437 390.201696 
" style="fill:none;stroke:#0078aa;stroke-linecap:square;stroke-width:2;"/>
   </g>
   <g id="line2d_38">
    <path clip-path="url(#pdacd540901)" d="M 57.48058 128.735568 
L 78.737723 331.723584 
L 99.994866 349.408944 
L 121.252009 357.46992 
L 142.509152 367.482384 
L 163.766295 375.776208 
L 185.023438 382.988952 
L 206.28058 389.225952 
L 227.537723 395.130312 
L 248.794866 400.430376 
L 270.052009 405.48096 
L 291.309152 410.154552 
L 312.566295 414.506592 
L 333.823437 417.583512 
L 355.08058 422.495496 
L 376.337723 425.954952 
L 397.594866 433.9494 
L 418.852009 438.833664 
L 440.109152 440.746344 
L 461.366295 442.714464 
L 482.623437 443.20788 
" style="fill:none;stroke:#3ab4f2;stroke-linecap:square;stroke-width:2;"/>
   </g>
   <g id="line2d_39">
    <path clip-path="url(#pdacd540901)" d="M 57.48058 337.799808 
L 78.737723 383.05548 
L 99.994866 393.627888 
L 121.252009 400.252968 
L 142.509152 406.606392 
L 163.766295 412.699248 
L 185.023438 417.611232 
L 206.28058 426.525984 
L 227.537723 432.17532 
L 248.794866 436.233528 
L 270.052009 438.112944 
L 291.309152 440.308368 
L 312.566295 441.8496 
L 333.823437 441.949392 
L 355.08058 442.858608 
L 376.337723 443.413008 
L 397.594866 443.42964 
L 418.852009 443.551608 
L 440.109152 443.557152 
L 461.366295 443.546064 
L 482.623437 444.155904 
" style="fill:none;stroke:#ffb319;stroke-linecap:square;stroke-width:2;"/>
   </g>
   <g id="patch_3">
    <path d="M 36.223438 561.6 
L 36.223438 7.2 
" style="fill:none;stroke:#4f4f4f;stroke-linecap:square;stroke-linejoin:miter;stroke-width:1.2;"/>
   </g>
   <g id="patch_4">
    <path d="M 36.223438 561.6 
L 482.623437 561.6 
" style="fill:none;stroke:#4f4f4f;stroke-linecap:square;stroke-linejoin:miter;stroke-width:1.2;"/>
   </g>
   <g id="legend_1">
    <g id="patch_5">
     <path d="M 325.623437 122.625 
L 475.623437 122.625 
Q 477.623437 122.625 477.623437 120.625 
L 477.623437 14.2 
Q 477.623437 12.2 475.623437 12.2 
L 325.623437 12.2 
Q 323.623437 12.2 323.623437 14.2 
L 323.623437 120.625 
Q 323.623437 122.625 325.623437 122.625 
z
" style="fill:#ffffff;opacity:0.2;stroke:#cccccc;stroke-linejoin:miter;"/>
    </g>
    <g id="line2d_40">
     <path d="M 326.623437 19.810937 
L 361.623437 19.810937 
" style="fill:none;stroke:#c21010;stroke-linecap:square;stroke-width:2;"/>
    </g>
    <g id="line2d_41"/>
    <g id="text_34">
     <!-- $\rm G-DMLS$（本文方法） -->
     <g transform="translate(369.623437 23.310937)scale(0.1 -0.1)">
      <defs>
       <path d="M 70.90625 35.40625 
L 70.90625 33.59375 
Q 66.5 33.203125 65.203125 31.796875 
Q 63.90625 30.40625 63.90625 25.59375 
L 63.90625 5.59375 
Q 55.296875 -1.40625 38.5 -1.40625 
Q 30.703125 -1.40625 23.546875 1.390625 
Q 16.40625 4.203125 11.5 9.296875 
Q 3.203125 18 3.203125 32.703125 
Q 3.203125 49.296875 13.90625 59 
Q 23.296875 67.59375 37.796875 67.59375 
Q 44.203125 67.59375 51.09375 65.296875 
Q 53.796875 64.296875 55.5 64.296875 
Q 57.09375 64.296875 58.296875 65.25 
Q 59.5 66.203125 60 67.59375 
L 62.203125 67.59375 
L 63 46.5 
L 60.703125 46.5 
Q 57.5 54.296875 53.59375 58.09375 
Q 47.796875 63.59375 39 63.59375 
Q 29 63.59375 22.296875 56.703125 
Q 14.59375 49 14.59375 32.40625 
Q 14.59375 18.59375 21.796875 10.59375 
Q 29 2.59375 40.90625 2.59375 
Q 46.59375 2.59375 50.390625 4.390625 
Q 54.203125 6.203125 54.203125 8.703125 
L 54.203125 24.40625 
Q 54.203125 30.203125 52.75 31.640625 
Q 51.296875 33.09375 45.296875 33.59375 
L 45.296875 35.40625 
z
" id="STIXGeneral-Regular-71"/>
       <path d="M 62.09375 22 
L 6.40625 22 
L 6.40625 28.59375 
L 62.09375 28.59375 
z
" id="STIXGeneral-Regular-8722"/>
       <path d="M 1.59375 66.203125 
L 28.59375 66.203125 
Q 48.09375 66.203125 58.59375 57.09375 
Q 68.5 48.59375 68.5 33.40625 
Q 68.5 15.09375 54.90625 6.40625 
Q 45 0 29.703125 0 
L 1.59375 0 
L 1.59375 1.90625 
Q 7.40625 2.296875 8.90625 3.9375 
Q 10.40625 5.59375 10.40625 11.5 
L 10.40625 55 
Q 10.40625 60.796875 8.90625 62.34375 
Q 7.40625 63.90625 1.59375 64.296875 
z
M 20.59375 58.296875 
L 20.59375 8.40625 
Q 20.59375 5.703125 21.546875 4.703125 
Q 22.5 3.703125 25.40625 3.703125 
Q 33.203125 3.703125 38 4.796875 
Q 42.796875 5.90625 47.203125 8.90625 
Q 57.59375 15.90625 57.59375 32.796875 
Q 57.59375 47.296875 48.09375 55.59375 
Q 43.796875 59.40625 38.6875 60.953125 
Q 33.59375 62.5 25.90625 62.5 
Q 23 62.5 21.796875 61.59375 
Q 20.59375 60.703125 20.59375 58.296875 
z
" id="STIXGeneral-Regular-68"/>
       <path d="M 86.40625 0 
L 58.40625 0 
L 58.40625 1.90625 
Q 64.296875 2.296875 65.84375 4.140625 
Q 67.40625 6 67.40625 12.296875 
L 67.40625 57.203125 
L 41.90625 0 
L 40.5 0 
L 15.296875 54.90625 
L 15.296875 15.09375 
Q 15.296875 7 17 4.59375 
Q 18.703125 2.203125 24.59375 1.90625 
L 24.59375 0 
L 1.203125 0 
L 1.203125 1.90625 
Q 5.59375 2.203125 7.5 3.203125 
Q 9.40625 4.203125 10.15625 6.75 
Q 10.90625 9.296875 10.90625 15.09375 
L 10.90625 54.90625 
Q 10.90625 60.59375 9.203125 62.25 
Q 7.5 63.90625 1.40625 64.296875 
L 1.40625 66.203125 
L 21.203125 66.203125 
L 44.296875 16 
L 66.40625 66.203125 
L 86.296875 66.203125 
L 86.296875 64.296875 
Q 80.90625 64.203125 79.25 62.390625 
Q 77.59375 60.59375 77.59375 55 
L 77.59375 11.203125 
Q 77.59375 5.90625 79.25 4.09375 
Q 80.90625 2.296875 86.40625 1.90625 
z
" id="STIXGeneral-Regular-77"/>
       <path d="M 59.796875 17.40625 
L 55 0 
L 1.203125 0 
L 1.203125 1.90625 
Q 6.703125 2.203125 8.296875 4 
Q 9.90625 5.796875 9.90625 11.5 
L 9.90625 54.59375 
Q 9.90625 60.5 8.453125 62.203125 
Q 7 63.90625 1.203125 64.296875 
L 1.203125 66.203125 
L 29.5 66.203125 
L 29.5 64.296875 
Q 23.40625 63.90625 21.75 62.25 
Q 20.09375 60.59375 20.09375 54.796875 
L 20.09375 8.40625 
Q 20.09375 5.59375 21.84375 4.75 
Q 23.59375 3.90625 29.09375 3.90625 
L 36.09375 3.90625 
Q 48.203125 3.90625 53 10 
Q 55 12.703125 57.203125 17.40625 
z
" id="STIXGeneral-Regular-76"/>
       <path d="M 46.90625 46.296875 
L 44.40625 46.296875 
Q 42.703125 52.5 40.296875 55.703125 
Q 34.203125 63.5 25.796875 63.5 
Q 21.203125 63.5 18.453125 60.84375 
Q 15.703125 58.203125 15.703125 54 
Q 15.703125 52 16.703125 50.09375 
Q 17.703125 48.203125 18.84375 46.84375 
Q 20 45.5 22.890625 43.5 
Q 25.796875 41.5 27.59375 40.453125 
Q 29.40625 39.40625 33.59375 36.90625 
Q 41.703125 32.203125 45.390625 27.546875 
Q 49.09375 22.90625 49.09375 17.296875 
Q 49.09375 9 43.296875 3.796875 
Q 37.5 -1.40625 28.703125 -1.40625 
Q 22.203125 -1.40625 16.90625 0.90625 
Q 14.296875 2 12.203125 2 
Q 11 2 10.203125 1.09375 
Q 9.40625 0.203125 9.40625 -1.296875 
L 7.203125 -1.296875 
L 4.296875 19.90625 
L 6.5 19.90625 
Q 13.203125 2.203125 27.09375 2.203125 
Q 32.40625 2.203125 35.703125 5.34375 
Q 39 8.5 39 13.40625 
Q 39 18.09375 36.09375 21.296875 
Q 31.296875 26.5 19.296875 32.90625 
Q 7.09375 39.40625 7.09375 50.09375 
Q 7.09375 58.09375 12 62.84375 
Q 16.90625 67.59375 24.5 67.59375 
Q 29.796875 67.59375 35 65.40625 
Q 37.703125 64.203125 39.40625 64.203125 
Q 42 64.203125 42.59375 67.59375 
L 44.703125 67.59375 
z
" id="STIXGeneral-Regular-83"/>
       <path d="M 73.4375 7.8125 
Q 85.546875 -1.5625 84.765625 -2.34375 
Q 83.984375 -3.125 77.34375 1.359375 
Q 70.703125 5.859375 64.640625 13.28125 
Q 58.59375 20.703125 57.609375 32.8125 
Q 56.640625 44.921875 62.5 54.484375 
Q 68.359375 64.0625 76.359375 69.71875 
Q 84.375 75.390625 84.5625 74.40625 
Q 84.765625 73.4375 79.296875 69.140625 
Q 73.828125 64.453125 68.546875 56.25 
Q 63.28125 48.046875 63.28125 35.15625 
Q 63.28125 22.265625 68.359375 15.03125 
Q 73.4375 7.8125 85.546875 -1.5625 
z
" id="SimSun-65288"/>
       <path d="M 53.125 13.28125 
Q 53.125 -0.78125 53.515625 -8.203125 
L 46.875 -10.546875 
Q 47.265625 6.640625 47.265625 13.28125 
L 30.859375 13.28125 
L 27.34375 12.5 
L 24.21875 15.625 
L 47.265625 15.625 
L 47.265625 50 
Q 32.421875 19.53125 4.6875 5.078125 
L 4.296875 6.640625 
Q 30.078125 24.21875 43.75 56.640625 
L 20.703125 56.640625 
Q 15.625 56.640625 11.328125 55.46875 
L 7.8125 58.984375 
L 47.265625 58.984375 
Q 47.265625 69.53125 46.875 82.03125 
L 57.03125 77.34375 
L 53.125 74.21875 
L 53.125 58.984375 
L 79.6875 58.984375 
L 85.15625 64.453125 
L 92.96875 56.640625 
L 57.03125 56.640625 
Q 69.921875 24.21875 95.3125 16.015625 
L 95.3125 14.453125 
Q 87.890625 14.0625 86.71875 9.765625 
Q 65.625 23.4375 55.078125 56.640625 
L 53.125 56.640625 
L 53.125 15.625 
L 64.84375 15.625 
L 69.53125 20.3125 
L 76.5625 13.28125 
z
" id="SimSun-26412"/>
       <path d="M 44.140625 80.46875 
Q 49.609375 76.953125 52.140625 74.015625 
Q 54.6875 71.09375 54.6875 69.140625 
Q 54.6875 67.1875 53.125 65.03125 
Q 51.5625 62.890625 50.390625 62.890625 
Q 49.21875 62.890625 48.4375 66.796875 
Q 47.265625 73.046875 42.96875 79.6875 
z
M 7.03125 60.546875 
L 79.6875 60.546875 
L 85.9375 66.796875 
L 94.53125 58.203125 
L 70.3125 58.203125 
Q 65.234375 32.8125 53.125 16.015625 
Q 68.75 1.953125 94.140625 0 
L 94.140625 -1.5625 
Q 86.71875 -2.734375 85.546875 -7.421875 
Q 61.71875 -0.390625 49.609375 12.890625 
Q 31.25 -3.90625 5.078125 -8.984375 
L 4.6875 -7.8125 
Q 30.078125 -0.390625 46.484375 16.40625 
Q 35.15625 33.203125 30.46875 58.203125 
L 19.921875 58.203125 
Q 14.84375 58.203125 10.546875 57.03125 
z
M 32.8125 58.203125 
Q 38.28125 35.546875 49.609375 20.3125 
Q 59.765625 35.546875 64.0625 58.203125 
z
" id="SimSun-25991"/>
       <path d="M 4.296875 61.328125 
L 82.03125 61.328125 
L 87.890625 67.1875 
L 96.09375 58.984375 
L 48.046875 58.984375 
Q 47.65625 51.5625 46.09375 41.796875 
L 71.484375 41.796875 
L 75.390625 45.703125 
L 81.640625 39.84375 
L 77.734375 37.5 
Q 73.828125 7.421875 72.265625 1.953125 
Q 70.703125 -3.515625 67.375 -5.65625 
Q 64.0625 -7.8125 58.203125 -9.375 
Q 56.640625 -3.125 45.3125 1.5625 
L 45.703125 3.125 
Q 56.25 0 59.5625 -0.1875 
Q 62.890625 -0.390625 64.640625 1.171875 
Q 66.40625 2.734375 67.96875 11.125 
Q 69.53125 19.53125 71.875 39.453125 
L 45.703125 39.453125 
Q 39.0625 5.46875 7.421875 -8.984375 
L 6.640625 -7.421875 
Q 41.796875 12.5 41.796875 58.984375 
L 17.1875 58.984375 
Q 12.109375 58.984375 7.8125 57.8125 
z
M 41.796875 80.46875 
Q 51.953125 76.5625 53.703125 73.828125 
Q 55.46875 71.09375 55.46875 69.53125 
Q 55.46875 67.96875 53.90625 65.8125 
Q 52.34375 63.671875 51.953125 63.671875 
Q 50.390625 63.671875 48.828125 67.96875 
Q 46.484375 73.828125 41.015625 79.296875 
z
" id="SimSun-26041"/>
       <path d="M 59.375 60.15625 
Q 59.375 76.953125 58.984375 82.421875 
L 68.359375 77.734375 
L 64.453125 73.828125 
L 64.453125 60.15625 
L 79.6875 60.15625 
L 83.984375 64.453125 
L 90.234375 57.8125 
L 64.453125 57.8125 
L 64.453125 36.71875 
L 85.15625 36.71875 
L 89.84375 41.40625 
L 96.484375 34.375 
L 59.765625 34.375 
L 66.015625 30.078125 
Q 62.5 28.515625 58.59375 22.65625 
Q 54.6875 16.796875 40.625 1.953125 
L 81.640625 4.6875 
Q 76.5625 11.71875 70.703125 18.359375 
L 71.484375 19.53125 
Q 78.515625 14.453125 82.609375 11.328125 
Q 86.71875 8.203125 89.25 5.265625 
Q 91.796875 2.34375 91.796875 0 
Q 91.796875 -2.34375 90.234375 -4.6875 
Q 88.671875 -7.03125 88.28125 -7.03125 
Q 87.109375 -7.03125 86.328125 -4.6875 
Q 84.765625 -0.78125 82.8125 2.734375 
Q 60.9375 0.390625 49.609375 -2.34375 
Q 38.28125 -5.078125 36.71875 -7.03125 
L 32.8125 1.953125 
Q 37.890625 1.953125 46.28125 13.671875 
Q 54.6875 25.390625 57.8125 34.375 
L 43.359375 34.375 
Q 38.28125 34.375 33.984375 33.203125 
L 30.46875 36.71875 
L 59.375 36.71875 
L 59.375 57.8125 
L 50.78125 57.8125 
Q 45.703125 57.8125 41.40625 56.640625 
L 37.890625 60.15625 
z
M 37.109375 64.84375 
Q 21.875 23.4375 20.5 18.546875 
Q 19.140625 13.671875 19.328125 6.640625 
Q 19.53125 -0.390625 19.921875 -3.125 
Q 19.921875 -4.6875 17.96875 -4.6875 
Q 16.40625 -4.6875 14.0625 -3.90625 
Q 11.71875 -3.125 11.71875 -0.390625 
Q 11.71875 1.5625 12.890625 5.46875 
Q 14.0625 9.375 14.0625 11.71875 
Q 14.0625 14.453125 12.296875 16.015625 
Q 10.546875 17.578125 4.6875 19.140625 
L 4.6875 20.703125 
Q 11.71875 19.921875 13.46875 20.109375 
Q 15.234375 20.3125 17.375 23.625 
Q 19.53125 26.953125 35.546875 65.234375 
z
M 5.078125 56.25 
Q 18.75 49.21875 18.75 44.71875 
Q 18.75 40.234375 16.59375 38.671875 
Q 14.453125 37.109375 12.890625 42.578125 
Q 10.9375 47.65625 4.296875 55.078125 
z
M 14.0625 78.90625 
Q 25 73.4375 25.96875 70.703125 
Q 26.953125 67.96875 26.953125 66.796875 
Q 26.953125 64.84375 25.578125 63.28125 
Q 24.21875 61.71875 23.4375 61.71875 
Q 22.265625 61.71875 21.09375 65.625 
Q 19.140625 70.703125 13.28125 77.734375 
z
" id="SimSun-27861"/>
       <path d="M 42.96875 21.875 
Q 30.078125 5.46875 22.453125 0.96875 
Q 14.84375 -3.515625 14.640625 -2.53125 
Q 14.453125 -1.5625 20.3125 2.734375 
Q 25.78125 6.640625 31.828125 15.8125 
Q 37.890625 25 37.109375 37.109375 
Q 36.328125 49.21875 31.046875 57.21875 
Q 25.78125 65.234375 20.3125 69.921875 
Q 14.453125 74.609375 14.640625 75.578125 
Q 14.84375 76.5625 22.0625 71.671875 
Q 29.296875 66.796875 36.328125 57.21875 
Q 43.359375 47.65625 43.15625 34.765625 
Q 42.96875 21.875 30.078125 5.46875 
z
" id="SimSun-65289"/>
      </defs>
      <use transform="translate(0 0.578125)" xlink:href="#STIXGeneral-Regular-71"/>
      <use transform="translate(87.759979 0.578125)" xlink:href="#STIXGeneral-Regular-8722"/>
      <use transform="translate(171.819962 0.578125)" xlink:href="#STIXGeneral-Regular-68"/>
      <use transform="translate(244.019943 0.578125)" xlink:href="#STIXGeneral-Regular-77"/>
      <use transform="translate(332.919937 0.578125)" xlink:href="#STIXGeneral-Regular-76"/>
      <use transform="translate(394.019928 0.578125)" xlink:href="#STIXGeneral-Regular-83"/>
      <use transform="translate(449.619919 0.578125)" xlink:href="#SimSun-65288"/>
      <use transform="translate(549.619919 0.578125)" xlink:href="#SimSun-26412"/>
      <use transform="translate(649.619919 0.578125)" xlink:href="#SimSun-25991"/>
      <use transform="translate(749.619919 0.578125)" xlink:href="#SimSun-26041"/>
      <use transform="translate(849.619919 0.578125)" xlink:href="#SimSun-27861"/>
      <use transform="translate(949.619919 0.578125)" xlink:href="#SimSun-65289"/>
     </g>
    </g>
    <g id="line2d_42">
     <path d="M 326.623437 33.248437 
L 361.623437 33.248437 
" style="fill:none;stroke:#e64848;stroke-linecap:square;stroke-width:2;"/>
    </g>
    <g id="line2d_43"/>
    <g id="text_35">
     <!-- $\rm G-TUM$ -->
     <g transform="translate(369.623437 36.748437)scale(0.1 -0.1)">
      <defs>
       <path d="M 59.296875 49.203125 
L 56.90625 49.203125 
Q 55.296875 57.40625 52.390625 59.703125 
Q 49.5 62 41.5 62 
L 35.59375 62 
L 35.59375 11.09375 
Q 35.59375 5.40625 37.296875 3.796875 
Q 39 2.203125 45.203125 1.90625 
L 45.203125 0 
L 16 0 
L 16 1.90625 
Q 22.296875 2.296875 23.84375 4 
Q 25.40625 5.703125 25.40625 12.296875 
L 25.40625 62 
L 19.40625 62 
Q 11.296875 62 8.4375 59.640625 
Q 5.59375 57.296875 4.09375 49.203125 
L 1.703125 49.203125 
L 2.40625 66.203125 
L 58.59375 66.203125 
z
" id="STIXGeneral-Regular-84"/>
       <path d="M 70.5 66.203125 
L 70.5 64.296875 
Q 64.40625 63.703125 62.75 61.34375 
Q 61.09375 59 61.09375 51.59375 
L 61.09375 26.09375 
Q 61.09375 18.40625 60 14 
Q 58.90625 9.59375 55.703125 5.90625 
Q 49.296875 -1.40625 35.5 -1.40625 
Q 24.59375 -1.40625 18.5 3.203125 
Q 10.40625 9.203125 10.40625 24.90625 
L 10.40625 55.90625 
Q 10.40625 60.90625 8.84375 62.40625 
Q 7.296875 63.90625 1.40625 64.296875 
L 1.40625 66.203125 
L 29.703125 66.203125 
L 29.703125 64.296875 
Q 23.703125 63.796875 22.140625 62.140625 
Q 20.59375 60.5 20.59375 54.90625 
L 20.59375 23.703125 
Q 20.59375 17.203125 21.390625 13.703125 
Q 22.203125 10.203125 25 7.5 
Q 29.703125 3 37.796875 3 
Q 47.90625 3 53 8.90625 
Q 55.296875 11.703125 56 15.046875 
Q 56.703125 18.40625 56.703125 25 
L 56.703125 51.296875 
Q 56.703125 59.09375 55 61.5 
Q 53.296875 63.90625 47.296875 64.296875 
L 47.296875 66.203125 
z
" id="STIXGeneral-Regular-85"/>
      </defs>
      <use transform="translate(0 0.40625)" xlink:href="#STIXGeneral-Regular-71"/>
      <use transform="translate(87.759979 0.40625)" xlink:href="#STIXGeneral-Regular-8722"/>
      <use transform="translate(171.819962 0.40625)" xlink:href="#STIXGeneral-Regular-84"/>
      <use transform="translate(232.919952 0.40625)" xlink:href="#STIXGeneral-Regular-85"/>
      <use transform="translate(305.119934 0.40625)" xlink:href="#STIXGeneral-Regular-77"/>
     </g>
    </g>
    <g id="line2d_44">
     <path d="M 326.623437 46.685937 
L 361.623437 46.685937 
" style="fill:none;stroke:#21e1e1;stroke-linecap:square;stroke-width:2;"/>
    </g>
    <g id="line2d_45"/>
    <g id="text_36">
     <!-- $\rm G-VUM$ -->
     <g transform="translate(369.623437 50.185937)scale(0.1 -0.1)">
      <defs>
       <path d="M 69.703125 66.203125 
L 69.703125 64.296875 
Q 66.59375 64.203125 64.59375 62.34375 
Q 62.59375 60.5 60.5 55.203125 
L 38.296875 -1.09375 
L 36.796875 -1.09375 
L 12.40625 53.296875 
Q 9.203125 60.40625 7.296875 62.296875 
Q 5.40625 64.203125 1.59375 64.296875 
L 1.59375 66.203125 
L 28.09375 66.203125 
L 28.09375 64.296875 
L 25.296875 64.09375 
Q 20.796875 63.796875 20.796875 61 
Q 20.796875 59 24.703125 50.296875 
L 39.90625 16.09375 
L 54.59375 53 
Q 56.5 57.796875 56.5 60.203125 
Q 56.5 60.90625 56.34375 61.453125 
Q 56.203125 62 56 62.390625 
Q 55.796875 62.796875 55.25 63.09375 
Q 54.703125 63.40625 54.390625 63.546875 
Q 54.09375 63.703125 53.296875 63.84375 
Q 52.5 64 52.140625 64.046875 
Q 51.796875 64.09375 50.75 64.1875 
Q 49.703125 64.296875 49.296875 64.296875 
L 49.296875 66.203125 
z
" id="STIXGeneral-Regular-86"/>
      </defs>
      <use transform="translate(0 0.40625)" xlink:href="#STIXGeneral-Regular-71"/>
      <use transform="translate(87.759979 0.40625)" xlink:href="#STIXGeneral-Regular-8722"/>
      <use transform="translate(171.819962 0.40625)" xlink:href="#STIXGeneral-Regular-86"/>
      <use transform="translate(244.019943 0.40625)" xlink:href="#STIXGeneral-Regular-85"/>
      <use transform="translate(316.219925 0.40625)" xlink:href="#STIXGeneral-Regular-77"/>
     </g>
    </g>
    <g id="line2d_46">
     <path d="M 326.623437 60.123437 
L 361.623437 60.123437 
" style="fill:none;stroke:#125c13;stroke-linecap:square;stroke-width:2;"/>
    </g>
    <g id="line2d_47"/>
    <g id="text_37">
     <!-- $\rm G-TUM+VUM$ -->
     <g transform="translate(369.623437 63.623437)scale(0.1 -0.1)">
      <defs>
       <path d="M 63.59375 22 
L 37.5 22 
L 37.5 -4.09375 
L 30.90625 -4.09375 
L 30.90625 22 
L 4.796875 22 
L 4.796875 28.59375 
L 30.90625 28.59375 
L 30.90625 54.703125 
L 37.5 54.703125 
L 37.5 28.59375 
L 63.59375 28.59375 
z
" id="STIXGeneral-Regular-43"/>
      </defs>
      <use transform="translate(0 0.40625)" xlink:href="#STIXGeneral-Regular-71"/>
      <use transform="translate(87.759979 0.40625)" xlink:href="#STIXGeneral-Regular-8722"/>
      <use transform="translate(171.819962 0.40625)" xlink:href="#STIXGeneral-Regular-84"/>
      <use transform="translate(232.919952 0.40625)" xlink:href="#STIXGeneral-Regular-85"/>
      <use transform="translate(305.119934 0.40625)" xlink:href="#STIXGeneral-Regular-77"/>
      <use transform="translate(409.579926 0.40625)" xlink:href="#STIXGeneral-Regular-43"/>
      <use transform="translate(493.639908 0.40625)" xlink:href="#STIXGeneral-Regular-86"/>
      <use transform="translate(565.83989 0.40625)" xlink:href="#STIXGeneral-Regular-85"/>
      <use transform="translate(638.039871 0.40625)" xlink:href="#STIXGeneral-Regular-77"/>
     </g>
    </g>
    <g id="line2d_48">
     <path d="M 326.623437 74.523437 
L 361.623437 74.523437 
" style="fill:none;stroke:#3120e0;stroke-linecap:square;stroke-width:2;"/>
    </g>
    <g id="line2d_49"/>
    <g id="text_38">
     <!-- $\rm S-DMLS$（本文方法） -->
     <g transform="translate(369.623437 78.023437)scale(0.1 -0.1)">
      <use transform="translate(0 0.578125)" xlink:href="#STIXGeneral-Regular-83"/>
      <use transform="translate(71.159988 0.578125)" xlink:href="#STIXGeneral-Regular-8722"/>
      <use transform="translate(155.219971 0.578125)" xlink:href="#STIXGeneral-Regular-68"/>
      <use transform="translate(227.419952 0.578125)" xlink:href="#STIXGeneral-Regular-77"/>
      <use transform="translate(316.319946 0.578125)" xlink:href="#STIXGeneral-Regular-76"/>
      <use transform="translate(377.419937 0.578125)" xlink:href="#STIXGeneral-Regular-83"/>
      <use transform="translate(433.019928 0.578125)" xlink:href="#SimSun-65288"/>
      <use transform="translate(533.019928 0.578125)" xlink:href="#SimSun-26412"/>
      <use transform="translate(633.019928 0.578125)" xlink:href="#SimSun-25991"/>
      <use transform="translate(733.019928 0.578125)" xlink:href="#SimSun-26041"/>
      <use transform="translate(833.019928 0.578125)" xlink:href="#SimSun-27861"/>
      <use transform="translate(933.019928 0.578125)" xlink:href="#SimSun-65289"/>
     </g>
    </g>
    <g id="line2d_50">
     <path d="M 326.623437 87.960937 
L 361.623437 87.960937 
" style="fill:none;stroke:#0078aa;stroke-linecap:square;stroke-width:2;"/>
    </g>
    <g id="line2d_51"/>
    <g id="text_39">
     <!-- $\rm S-TUM$ -->
     <g transform="translate(369.623437 91.460937)scale(0.1 -0.1)">
      <use transform="translate(0 0.40625)" xlink:href="#STIXGeneral-Regular-83"/>
      <use transform="translate(71.159988 0.40625)" xlink:href="#STIXGeneral-Regular-8722"/>
      <use transform="translate(155.219971 0.40625)" xlink:href="#STIXGeneral-Regular-84"/>
      <use transform="translate(216.319962 0.40625)" xlink:href="#STIXGeneral-Regular-85"/>
      <use transform="translate(288.519943 0.40625)" xlink:href="#STIXGeneral-Regular-77"/>
     </g>
    </g>
    <g id="line2d_52">
     <path d="M 326.623437 101.398437 
L 361.623437 101.398437 
" style="fill:none;stroke:#3ab4f2;stroke-linecap:square;stroke-width:2;"/>
    </g>
    <g id="line2d_53"/>
    <g id="text_40">
     <!-- $\rm S-VUM$ -->
     <g transform="translate(369.623437 104.898437)scale(0.1 -0.1)">
      <use transform="translate(0 0.40625)" xlink:href="#STIXGeneral-Regular-83"/>
      <use transform="translate(71.159988 0.40625)" xlink:href="#STIXGeneral-Regular-8722"/>
      <use transform="translate(155.219971 0.40625)" xlink:href="#STIXGeneral-Regular-86"/>
      <use transform="translate(227.419952 0.40625)" xlink:href="#STIXGeneral-Regular-85"/>
      <use transform="translate(299.619934 0.40625)" xlink:href="#STIXGeneral-Regular-77"/>
     </g>
    </g>
    <g id="line2d_54">
     <path d="M 326.623437 114.835937 
L 361.623437 114.835937 
" style="fill:none;stroke:#ffb319;stroke-linecap:square;stroke-width:2;"/>
    </g>
    <g id="line2d_55"/>
    <g id="text_41">
     <!-- $\rm S-TUM+VUM$ -->
     <g transform="translate(369.623437 118.335937)scale(0.1 -0.1)">
      <use transform="translate(0 0.40625)" xlink:href="#STIXGeneral-Regular-83"/>
      <use transform="translate(71.159988 0.40625)" xlink:href="#STIXGeneral-Regular-8722"/>
      <use transform="translate(155.219971 0.40625)" xlink:href="#STIXGeneral-Regular-84"/>
      <use transform="translate(216.319962 0.40625)" xlink:href="#STIXGeneral-Regular-85"/>
      <use transform="translate(288.519943 0.40625)" xlink:href="#STIXGeneral-Regular-77"/>
      <use transform="translate(392.979935 0.40625)" xlink:href="#STIXGeneral-Regular-43"/>
      <use transform="translate(477.039917 0.40625)" xlink:href="#STIXGeneral-Regular-86"/>
      <use transform="translate(549.239899 0.40625)" xlink:href="#STIXGeneral-Regular-85"/>
      <use transform="translate(621.43988 0.40625)" xlink:href="#STIXGeneral-Regular-77"/>
     </g>
    </g>
   </g>
  </g>
 </g>
 <defs>
  <clipPath id="pdacd540901">
   <rect height="554.4" width="446.4" x="36.223438" y="7.2"/>
  </clipPath>
 </defs>
</svg>
